<?xml version="1.0" encoding="UTF-8"?>
<svg id="Layer_1" xmlns="http://www.w3.org/2000/svg" version="1.1" viewBox="0 0 640 640">
  <!-- Generator: Adobe Illustrator 30.1.0, SVG Export Plug-In . SVG Version: 2.1.1 Build 136)  -->
  <defs>
    <style>
      .st0 {
        fill: #4a4e54;
      }
    </style>
  </defs>
  <path class="st0" d="M157.11,147.31c-5.04,1.08-8.66,4.7-9.91,9.6-.1.4-.47.89-.94.89h-18.35c0-1.75.2-3.3.58-4.98,2.94-12.94,14-23.18,27.32-24.62,7.94-1.04,15.88.82,22.45,5.38,7.91,5.58,13.02,14.33,13.65,24.11h-18.88c-.71-3.41-2.49-6.21-5.26-8.17-3.05-2.35-6.8-3.15-10.66-2.22Z"/>
  <path class="st0" d="M173.87,163.1h17.92c-.91,13.7-11.52,25.21-24.48,28.27-14.23,3.37-28.71-3.16-35.67-15.95-2.06-3.78-3.35-7.89-3.66-12.31l18.12-.04c.64,0,1.03.32,1.2.88,1.31,4.31,4.64,7.66,8.52,8.89,7.23,2.28,14.3-1.31,16.97-8.87.12-.35.55-.86,1.07-.86ZM174.69,165.48c-1.55,3.98-4.1,6.9-7.68,8.72-2.12.93-4.24,1.41-6.58,1.61-6.42.23-12.27-3.58-14.73-9.49-.34-.88-1.02-.92-1.86-.91l-13.22.03c.62,4.26,2.33,8.12,4.73,11.59,6.52,9.44,17.62,14.29,29.02,12.6,7.85-1.15,14.79-5.5,19.54-11.85,2.68-3.64,4.59-7.67,5.22-12.3h-14.43Z"/>
  <path class="st0" d="M159.1,151.36c5.07-.47,9.28,3.29,9.77,8.1.5,4.98-3.21,9.41-8.16,9.85s-9.28-3.19-9.78-8.11,3.02-9.36,8.17-9.84Z"/>
  <g>
    <path class="st0" d="M477.11,467.31c-5.04,1.08-8.66,4.7-9.91,9.6-.1.4-.47.89-.94.89h-18.35c0-1.75.2-3.3.58-4.98,2.94-12.94,14-23.18,27.32-24.62,7.94-1.04,15.88.82,22.45,5.38,7.91,5.58,13.02,14.33,13.65,24.11h-18.88c-.71-3.41-2.49-6.21-5.26-8.17-3.05-2.35-6.8-3.15-10.66-2.22Z"/>
    <path class="st0" d="M493.87,483.1h17.92c-.91,13.7-11.52,25.21-24.48,28.27-14.23,3.37-28.71-3.16-35.67-15.95-2.06-3.78-3.35-7.89-3.66-12.31l18.12-.04c.64,0,1.03.32,1.2.88,1.31,4.31,4.64,7.66,8.52,8.89,7.23,2.28,14.3-1.31,16.97-8.87.12-.35.55-.86,1.07-.86ZM494.69,485.48c-1.55,3.98-4.1,6.9-7.68,8.72-2.12.93-4.24,1.41-6.58,1.61-6.42.23-12.27-3.58-14.73-9.49-.34-.88-1.02-.92-1.86-.91l-13.22.03c.62,4.26,2.33,8.12,4.73,11.59,6.52,9.44,17.62,14.29,29.02,12.6,7.85-1.15,14.79-5.5,19.54-11.85,2.68-3.64,4.59-7.67,5.22-12.3h-14.43Z"/>
    <path class="st0" d="M479.1,471.36c5.07-.47,9.28,3.29,9.77,8.1.5,4.98-3.21,9.41-8.16,9.85s-9.28-3.19-9.78-8.11c-.49-4.86,3.02-9.36,8.17-9.84Z"/>
  </g>
</svg>